<svg id="ACA" xmlns="http://www.w3.org/2000/svg" viewBox="0 0 94 64">
  <style>
    .st1{fill:#0c2553}.st2{fill:#fff}
  </style>
  <path fill="none" d="M45.8 13.5l1.3 2.9 1.1-1.9-1.3-2.9z"/>
  <path class="st1" d="M52 44h8l-5.7-12.3-4.4 7.7zM31.5 0v.1l.1-.1zM45.8 13.5l-4.4 7.7 1.3 2.8 4.4-7.6zM39.5.1l-4.4 7.7.9 1.9L40.4 2zM48.2 14.5L54.9 3 53.5.1l-6.6 11.5zM41.5 0v.1l.1-.1zM62 44h12L62 18.3l-6.6 11.5zM77 44h16L72.5.1l-8.8 15.3zM56.5 0v.1l.1-.1z"/>
  <path class="st2" d="M.6 53.9L31.7.1h7.7L8.3 53.9z"/>
  <path class="st1" d="M39.2.3l-4.3 7.4L8.3 53.8H.8L31.7.3h7.5m.4-.3h-8l-.1.1L.4 54h8L35.1 7.8 39.6 0z"/>
  <path class="st2" d="M10.6 53.9L41.7.1h11.7L22.3 53.9z"/>
  <path class="st1" d="M53.2.3l-6.5 11.2-1.1 1.9-4.5 7.6-18.8 32.8H10.8l25.4-44 4.4-7.7L41.7.2h11.5m.4-.2h-12l-.1.1L40.4 2 36 9.7 10.4 54h12l19-32.8 4.4-7.7 1.1-1.9L53.6 0z"/>
  <g>
    <path class="st2" d="M25.6 53.9L56.7.1h15.7L41.3 53.9z"/>
    <path class="st1" d="M72.2.3l-8.7 15-1.7 2.9-6.6 11.5-1.1 1.9-4.4 7.7-8.4 14.5H25.8l17.1-29.6 4.4-7.7 1.1-1.9L55 3.1 56.6.3h15.6m.4-.3h-16l-.1.1L54.9 3l-6.6 11.5-1.1 1.9-4.5 7.6-17.3 30h16l8.4-14.6 4.4-7.7 1.1-1.9L62 18.3l1.7-2.9L72.6 0z"/>
  </g>
  <g>
    <path class="st1" d="M53.7 53.9l-.3-2.1h-3.1l-1.1 2.1h-1.7l4.6-8.3h2l1.4 8.3h-1.8zm-.9-7c-.1.3-.3.7-.6 1.2L51 50.4h2.3l-.4-2.6c-.1-.5-.1-.8-.1-.9zM57 53.9l1.6-8.3h1.7L59 52.5h4.4l-.3 1.3H57zM64.9 53.9l1.6-8.3h1.7l-1.3 6.9h4.4l-.3 1.4h-6.1zM72.7 53.9l1.6-8.3H76l-1.6 8.3h-1.7zM76.6 53.9l1.6-8.3h6.5l-.3 1.3h-4.8l-.3 2.1h4.4l-.3 1.3H79l-.4 2.2h5l-.3 1.3h-6.7zM89.2 45.6c1.3 0 2.3.3 3 .9s1 1.5 1 2.6c0 .9-.2 1.7-.6 2.4s-.9 1.3-1.7 1.7-1.6.6-2.5.6H85l1.6-8.3h2.6zm-2.1 6.9h1.3c.6 0 1.2-.1 1.7-.4s.9-.7 1.1-1.2.4-1.1.4-1.8-.2-1.3-.6-1.7-1-.6-1.8-.6h-1l-1.1 5.7z"/>
  </g>
  <g>
    <path class="st1" d="M1 60.4c0-1.4.9-2.3 2-2.3.6 0 1 .3 1.3.6l-.4.5c-.2-.2-.5-.4-.8-.4-.7 0-1.2.6-1.2 1.6S2.4 62 3.1 62c.4 0 .7-.2.9-.5l.4.5c-.4.4-.8.6-1.4.6-1.1.1-2-.8-2-2.2zM4.5 60.3c0-1.4.8-2.3 1.9-2.3 1.1 0 1.9.8 1.9 2.3 0 1.4-.8 2.3-1.9 2.3-1.1.1-1.9-.8-1.9-2.3zm3.1 0c0-1-.4-1.6-1.1-1.6-.7 0-1.1.6-1.1 1.6s.3 1.7 1 1.7 1.2-.7 1.2-1.7zM9.1 58.2h.8l1.4 2.5.5.9c0-.5-.1-1-.1-1.5v-1.9h.7v4.4h-.8l-1.4-2.5-.5-.9c0 .5.1 1 .1 1.5v1.9h-.7v-4.4zM13 62l.5-.5c.3.3.7.5 1.1.5.5 0 .8-.2.8-.6 0-.4-.3-.5-.7-.6l-.6-.3c-.4-.2-.9-.5-.9-1.2s.6-1.2 1.5-1.2c.5 0 1 .2 1.4.6l-.4.5c-.3-.2-.6-.4-1-.4s-.7.2-.7.5.3.5.7.6l.6.2c.5.2.9.6.9 1.2 0 .7-.6 1.3-1.6 1.3-.6.1-1.2-.2-1.6-.6zM17.5 58.8h-1.3v-.7h3.3v.7h-1.3v3.8h-.8v-3.8zM20.1 58.2h1.5c.9 0 1.6.3 1.6 1.3 0 .9-.7 1.4-1.6 1.4h-.7v1.7h-.8v-4.4zm1.4 2c.6 0 .9-.3.9-.8s-.3-.7-.9-.7h-.6v1.4h.6zm-.1.4l.6-.5 1.4 2.4h-.9l-1.1-1.9zM23.8 60.6v-2.5h.8v2.5c0 1 .4 1.3.9 1.3s.9-.3.9-1.3v-2.5h.8v2.5c0 1.4-.6 2-1.7 2s-1.7-.5-1.7-2zM27.8 60.4c0-1.4.9-2.3 2-2.3.6 0 1 .3 1.3.6l-.4.5c-.2-.2-.5-.4-.8-.4-.7 0-1.2.6-1.2 1.6s.5 1.6 1.2 1.6c.4 0 .7-.2.9-.5l.4.5c-.4.4-.8.6-1.4.6-1.1.1-2-.8-2-2.2zM32.5 58.8h-1.3v-.7h3.3v.7h-1.3v3.8h-.8v-3.8zM35.1 58.2h.8v4.4h-.8v-4.4zM36.6 60.3c0-1.4.8-2.3 1.9-2.3 1.1 0 1.9.8 1.9 2.3 0 1.4-.8 2.3-1.9 2.3-1.1.1-1.9-.8-1.9-2.3zm3 0c0-1-.4-1.6-1.1-1.6s-1.1.6-1.1 1.6.4 1.6 1.1 1.6 1.1-.6 1.1-1.6zM41.1 58.2h.8l1.4 2.5.5.9c0-.5-.1-1-.1-1.5v-1.9h.7v4.4h-.8l-1.4-2.5-.5-.9c0 .5.1 1 .1 1.5v1.9h-.7v-4.4zM47.3 58.2h.9l1.4 4.4h-.8l-.7-2.3c-.1-.5-.3-1-.4-1.5-.1.5-.3 1-.4 1.5l-.7 2.3h-.8l1.5-4.4zm-.6 2.6h2.1v.6h-2.1v-.6zM49.7 62l.5-.5c.3.3.7.5 1.1.5.5 0 .8-.2.8-.6 0-.4-.3-.5-.7-.6l-.6-.3c-.4-.2-.9-.5-.9-1.2s.6-1.2 1.5-1.2c.5 0 1 .2 1.4.6l-.4.5c-.3-.2-.6-.4-1-.4s-.7.2-.7.5.3.5.7.6l.6.2c.5.2.9.6.9 1.2 0 .7-.6 1.3-1.6 1.3-.6.1-1.2-.2-1.6-.6zM53.1 62l.5-.5c.3.3.7.5 1.1.5.5 0 .8-.2.8-.6 0-.4-.3-.5-.7-.6l-.6-.3c-.4-.2-.9-.5-.9-1.2s.6-1.2 1.5-1.2c.5 0 1 .2 1.4.6l-.4.5c-.3-.2-.6-.4-1-.4s-.7.2-.7.5.3.5.7.6l.6.2c.5.2.9.6.9 1.2 0 .7-.6 1.3-1.6 1.3-.6.1-1.2-.2-1.6-.6zM56.6 60.3c0-1.4.8-2.3 1.9-2.3s1.9.8 1.9 2.3c0 1.4-.8 2.3-1.9 2.3s-1.9-.8-1.9-2.3zm3.1 0c0-1-.4-1.6-1.1-1.6s-1.1.6-1.1 1.6.4 1.6 1.1 1.6 1.1-.6 1.1-1.6zM60.9 60.4c0-1.4.9-2.3 2-2.3.6 0 1 .3 1.3.6l-.4.5c-.2-.2-.5-.4-.8-.4-.7 0-1.2.6-1.2 1.6S62.3 62 63 62c.4 0 .7-.2.9-.5l.4.5c-.4.4-.8.6-1.4.6-1.1.1-2-.8-2-2.2zM64.8 58.2h.8v4.4h-.8v-4.4zM67.4 58.2h.9l1.4 4.4h-.8l-.7-2.3c-.1-.5-.3-1-.4-1.5-.1.5-.3 1-.4 1.5l-.7 2.3H66l1.4-4.4zm-.6 2.6h2.1v.6h-2.1v-.6zM70.5 58.8h-1.3v-.7h3.3v.7h-1.3v3.8h-.8v-3.8zM73.1 58.2h2.7v.7h-1.9V60h1.6v.7h-1.6V62h1.9v.7h-2.7v-4.5zM76.2 62l.5-.5c.3.3.7.5 1.1.5.5 0 .8-.2.8-.6 0-.4-.3-.5-.7-.6l-.6-.3c-.4-.2-.9-.5-.9-1.2s.6-1.2 1.5-1.2c.5 0 1 .2 1.4.6l-.4.5c-.3-.2-.6-.4-1-.4s-.7.2-.7.5.3.5.7.6l.6.2c.5.2.9.6.9 1.2 0 .7-.6 1.3-1.6 1.3-.6.1-1.1-.2-1.6-.6zM79.8 63.4c.4-.2.7-.5.7-.8V62l.3.5c-.1.1-.2.1-.3.1-.3 0-.5-.2-.5-.5s.2-.5.5-.5c.4 0 .6.3.6.8 0 .7-.4 1.2-1 1.4l-.3-.4zM82.8 58.2h.8v4.4h-.8v-4.4zM84.5 58.2h.8l1.4 2.5.5.9c0-.5-.1-1-.1-1.5v-1.9h.7v4.4H87l-1.4-2.5-.5-.9c0 .5.1 1 .1 1.5v1.9h-.7v-4.4zM88.5 60.4c0-1.4.9-2.3 2-2.3.6 0 1 .3 1.3.6l-.4.5c-.2-.2-.5-.4-.8-.4-.7 0-1.2.6-1.2 1.6s.5 1.6 1.2 1.6c.4 0 .7-.2.9-.5l.4.5c-.4.4-.8.6-1.4.6-1.2.1-2-.8-2-2.2zM92.2 62.1c0-.3.2-.5.5-.5s.5.2.5.5-.2.5-.5.5-.5-.2-.5-.5z"/>
  </g>
</svg>